<svg width="95" height="40" viewBox="0 0 95 40" fill="none" xmlns="http://www.w3.org/2000/svg">
<g clip-path="url(#clip0_13161_210)">
<rect width="95" height="40" rx="20" fill="#2563EB"/>
<path d="M25.316 25V15.2H29.488C30.132 15.2 30.6733 15.2933 31.112 15.48C31.56 15.6667 31.896 15.9467 32.12 16.32C32.344 16.684 32.456 17.1273 32.456 17.65C32.456 18.1913 32.3113 18.6487 32.022 19.022C31.742 19.3953 31.3407 19.652 30.818 19.792V19.512C31.2473 19.6053 31.6253 19.7733 31.952 20.016C32.2787 20.2493 32.5307 20.5433 32.708 20.898C32.8853 21.2433 32.974 21.64 32.974 22.088C32.974 22.564 32.8947 22.984 32.736 23.348C32.5867 23.712 32.3627 24.0153 32.064 24.258C31.7747 24.5007 31.4247 24.6873 31.014 24.818C30.6127 24.9393 30.1553 25 29.642 25H25.316ZM27.08 23.362H29.544C30.0573 23.362 30.454 23.25 30.734 23.026C31.0233 22.7927 31.168 22.4613 31.168 22.032C31.168 21.7707 31.098 21.5467 30.958 21.36C30.818 21.1733 30.622 21.0333 30.37 20.94C30.118 20.8373 29.8193 20.786 29.474 20.786H27.08V23.362ZM27.08 19.218H29.334C29.5953 19.218 29.8287 19.1667 30.034 19.064C30.2393 18.9613 30.398 18.8213 30.51 18.644C30.622 18.4667 30.678 18.2613 30.678 18.028C30.678 17.6453 30.5473 17.3513 30.286 17.146C30.034 16.9407 29.6653 16.838 29.18 16.838H27.08V19.218ZM37.3087 25.14C36.7767 25.14 36.3147 25.0187 35.9227 24.776C35.54 24.5333 35.2413 24.1927 35.0267 23.754C34.8213 23.3153 34.7187 22.788 34.7187 22.172V17.622H36.4267V21.808C36.4267 22.3867 36.562 22.844 36.8327 23.18C37.1127 23.516 37.5 23.684 37.9947 23.684C38.2373 23.684 38.4567 23.6467 38.6527 23.572C38.858 23.488 39.0353 23.376 39.1847 23.236C39.334 23.0867 39.4507 22.9093 39.5347 22.704C39.6187 22.4987 39.6607 22.2793 39.6607 22.046V17.622H41.3687V25H39.7027L39.6747 23.46L39.9827 23.292C39.8707 23.6373 39.6793 23.95 39.4087 24.23C39.1473 24.51 38.8347 24.734 38.4707 24.902C38.1067 25.0607 37.7193 25.14 37.3087 25.14ZM44.313 25V15.746H46.021V25H44.313ZM42.857 19.218V17.622H47.631V19.218H42.857ZM49.8544 25V15.746H51.5624V25H49.8544ZM48.3984 19.218V17.622H53.1724V19.218H48.3984ZM57.8754 25.14C57.1381 25.14 56.4801 24.9767 55.9014 24.65C55.3228 24.314 54.8654 23.8567 54.5294 23.278C54.2028 22.6993 54.0394 22.0413 54.0394 21.304C54.0394 20.5667 54.2028 19.9087 54.5294 19.33C54.8654 18.7513 55.3228 18.2987 55.9014 17.972C56.4801 17.636 57.1381 17.468 57.8754 17.468C58.6034 17.468 59.2568 17.636 59.8354 17.972C60.4141 18.2987 60.8668 18.7513 61.1934 19.33C61.5294 19.9087 61.6974 20.5667 61.6974 21.304C61.6974 22.0413 61.5294 22.6993 61.1934 23.278C60.8668 23.8567 60.4141 24.314 59.8354 24.65C59.2568 24.9767 58.6034 25.14 57.8754 25.14ZM57.8754 23.614C58.2768 23.614 58.6361 23.516 58.9534 23.32C59.2708 23.1147 59.5181 22.8393 59.6954 22.494C59.8821 22.1393 59.9708 21.7427 59.9614 21.304C59.9708 20.856 59.8821 20.4593 59.6954 20.114C59.5181 19.7593 59.2708 19.484 58.9534 19.288C58.6361 19.092 58.2768 18.994 57.8754 18.994C57.4741 18.994 57.1101 19.0967 56.7834 19.302C56.4661 19.498 56.2188 19.7733 56.0414 20.128C55.8641 20.4733 55.7754 20.8653 55.7754 21.304C55.7754 21.7427 55.8641 22.1393 56.0414 22.494C56.2188 22.8393 56.4661 23.1147 56.7834 23.32C57.1101 23.516 57.4741 23.614 57.8754 23.614ZM63.3381 25V17.622H65.0041L65.0321 19.134L64.7101 19.302C64.8127 18.9753 64.9947 18.6767 65.2561 18.406C65.5267 18.126 65.8487 17.902 66.2221 17.734C66.5954 17.5567 66.9827 17.468 67.3841 17.468C67.9441 17.468 68.4107 17.58 68.7841 17.804C69.1667 18.028 69.4514 18.364 69.6381 18.812C69.8247 19.26 69.9181 19.82 69.9181 20.492V25H68.2101V20.618C68.2101 20.2353 68.1587 19.9227 68.0561 19.68C67.9534 19.428 67.7947 19.246 67.5801 19.134C67.3654 19.0127 67.1041 18.9613 66.7961 18.98C66.5441 18.98 66.3107 19.022 66.0961 19.106C65.8814 19.1807 65.6947 19.2927 65.5361 19.442C65.3867 19.582 65.2654 19.75 65.1721 19.946C65.0881 20.1327 65.0461 20.338 65.0461 20.562V25H64.1921C64.0334 25 63.8794 25 63.7301 25C63.5901 25 63.4594 25 63.3381 25Z" fill="white"/>
</g>
<defs>
<clipPath id="clip0_13161_210">
<rect width="95" height="40" rx="20" fill="white"/>
</clipPath>
</defs>
</svg>
