<svg width="78" height="28" viewBox="0 0 78 28" fill="none" xmlns="http://www.w3.org/2000/svg">
<rect width="78" height="28" rx="8" fill="#2563EB"/>
<g clip-path="url(#clip0_13161_32477)">
<path d="M20.0002 14.6668H12.0002C11.6335 14.6668 11.3335 14.3668 11.3335 14.0002C11.3335 13.6335 11.6335 13.3335 12.0002 13.3335H20.0002C20.3668 13.3335 20.6668 13.6335 20.6668 14.0002C20.6668 14.3668 20.3668 14.6668 20.0002 14.6668Z" fill="#F8FAFC"/>
</g>
<path d="M38.365 17.461V11.224L38.783 11.73L37.221 12.522L36.902 11.279L39.003 10.19H39.784V17.461H38.365ZM37.089 18V16.68H41.104V18H37.089Z" fill="#F8FAFC"/>
<g clip-path="url(#clip1_13161_32477)">
<path d="M66.0002 14.6668H62.6668V18.0002C62.6668 18.3668 62.3668 18.6668 62.0002 18.6668C61.6335 18.6668 61.3335 18.3668 61.3335 18.0002V14.6668H58.0002C57.6335 14.6668 57.3335 14.3668 57.3335 14.0002C57.3335 13.6335 57.6335 13.3335 58.0002 13.3335H61.3335V10.0002C61.3335 9.6335 61.6335 9.3335 62.0002 9.3335C62.3668 9.3335 62.6668 9.6335 62.6668 10.0002V13.3335H66.0002C66.3668 13.3335 66.6668 13.6335 66.6668 14.0002C66.6668 14.3668 66.3668 14.6668 66.0002 14.6668Z" fill="#F8FAFC"/>
</g>
<defs>
<clipPath id="clip0_13161_32477">
<rect x="8" y="6" width="16" height="16" rx="8" fill="white"/>
</clipPath>
<clipPath id="clip1_13161_32477">
<rect x="54" y="6" width="16" height="16" rx="8" fill="white"/>
</clipPath>
</defs>
</svg>
