<svg width="24" height="24" viewBox="0 0 24 24" fill="none" xmlns="http://www.w3.org/2000/svg">
    <defs>
        <linearGradient id="paint0_linear_13161_655" x1="20.3513" y1="4.11945" x2="2.86044" y2="20.9578" gradientUnits="userSpaceOnUse">
            <stop offset="0.05" stop-color="#FFF44F"/>
            <stop offset="0.11" stop-color="#FFE847"/>
            <stop offset="0.22" stop-color="#FFC830"/>
            <stop offset="0.37" stop-color="#FF980E"/>
            <stop offset="0.4" stop-color="#FF8B16"/>
            <stop offset="0.46" stop-color="#FF672A"/>
            <stop offset="0.53" stop-color="#FF3647"/>
            <stop offset="0.7" stop-color="#E31587"/>
        </linearGradient>
        <radialGradient id="paint1_radial_13161_655" cx="0" cy="0" r="1" gradientUnits="userSpaceOnUse" gradientTransform="translate(19.5447 3.16422) scale(21.9185 21.9666)">
            <stop offset="0.13" stop-color="#FFBD4F"/>
            <stop offset="0.19" stop-color="#FFAC31"/>
            <stop offset="0.25" stop-color="#FF9D17"/>
            <stop offset="0.28" stop-color="#FF980E"/>
            <stop offset="0.4" stop-color="#FF563B"/>
            <stop offset="0.47" stop-color="#FF3750"/>
            <stop offset="0.71" stop-color="#F5156C"/>
            <stop offset="0.78" stop-color="#EB0878"/>
            <stop offset="0.86" stop-color="#E50080"/>
        </radialGradient>
        <radialGradient id="paint2_radial_13161_655" cx="0" cy="0" r="1" gradientUnits="userSpaceOnUse" gradientTransform="translate(11.5356 12.1445) scale(21.9185 21.9666)">
            <stop offset="0.3" stop-color="#960E18"/>
            <stop offset="0.35" stop-color="#B11927" stop-opacity="0.74"/>
            <stop offset="0.43" stop-color="#DB293D" stop-opacity="0.34"/>
            <stop offset="0.5" stop-color="#F5334B" stop-opacity="0.09"/>
            <stop offset="0.53" stop-color="#FF3750" stop-opacity="0"/>
        </radialGradient>
        <radialGradient id="paint3_radial_13161_655" cx="0" cy="0" r="1" gradientUnits="userSpaceOnUse" gradientTransform="translate(14.1785 -1.82075) scale(15.879 15.9138)">
            <stop offset="0.13" stop-color="#FFF44F"/>
            <stop offset="0.25" stop-color="#FFDC3E"/>
            <stop offset="0.51" stop-color="#FF9D12"/>
            <stop offset="0.53" stop-color="#FF980E"/>
        </radialGradient>
        <radialGradient id="paint4_radial_13161_655" cx="0" cy="0" r="1" gradientUnits="userSpaceOnUse" gradientTransform="translate(9.11126 17.8825) scale(10.4362 10.4591)">
            <stop offset="0.35" stop-color="#3A8EE6"/>
            <stop offset="0.47" stop-color="#5C79F0"/>
            <stop offset="0.67" stop-color="#9059FF"/>
            <stop offset="1" stop-color="#C139E6"/>
        </radialGradient>
        <radialGradient id="paint5_radial_13161_655" cx="0" cy="0" r="1" gradientUnits="userSpaceOnUse" gradientTransform="translate(11.8502 9.5339) rotate(-13.9265) scale(5.52987 6.50889)">
            <stop offset="0.21" stop-color="#9059FF" stop-opacity="0"/>
            <stop offset="0.28" stop-color="#8C4FF3" stop-opacity="0.06"/>
            <stop offset="0.75" stop-color="#7716A8" stop-opacity="0.45"/>
            <stop offset="0.97" stop-color="#6E008B" stop-opacity="0.6"/>
        </radialGradient>
        <radialGradient id="paint6_radial_13161_655" cx="0" cy="0" r="1" gradientUnits="userSpaceOnUse" gradientTransform="translate(11.2585 2.26567) scale(7.50813 7.52461)">
            <stop stop-color="#FFE226"/>
            <stop offset="0.12" stop-color="#FFDB27"/>
            <stop offset="0.3" stop-color="#FFC82A"/>
            <stop offset="0.5" stop-color="#FFA930"/>
            <stop offset="0.73" stop-color="#FF7E37"/>
            <stop offset="0.79" stop-color="#FF7139"/>
        </radialGradient>
        <radialGradient id="paint7_radial_13161_655" cx="0" cy="0" r="1" gradientUnits="userSpaceOnUse" gradientTransform="translate(17.1606 -2.50747) scale(32.0332 32.1034)">
            <stop offset="0.11" stop-color="#FFF44F"/>
            <stop offset="0.46" stop-color="#FF980E"/>
            <stop offset="0.62" stop-color="#FF5634"/>
            <stop offset="0.72" stop-color="#FF3647"/>
            <stop offset="0.9" stop-color="#E31587"/>
        </radialGradient>
        <radialGradient id="paint8_radial_13161_655" cx="0" cy="0" r="1" gradientUnits="userSpaceOnUse" gradientTransform="translate(14.0637 1.00031) rotate(84.2447) scale(23.3997 15.3407)">
            <stop stop-color="#FFF44F"/>
            <stop offset="0.06" stop-color="#FFE847"/>
            <stop offset="0.17" stop-color="#FFC830"/>
            <stop offset="0.3" stop-color="#FF980E"/>
            <stop offset="0.36" stop-color="#FF8B16"/>
            <stop offset="0.45" stop-color="#FF672A"/>
            <stop offset="0.57" stop-color="#FF3647"/>
            <stop offset="0.74" stop-color="#E31587"/>
        </radialGradient>
        <radialGradient id="paint9_radial_13161_655" cx="0" cy="0" r="1" gradientUnits="userSpaceOnUse" gradientTransform="translate(11.0818 5.05243) scale(19.9983 20.0422)">
            <stop offset="0.14" stop-color="#FFF44F"/>
            <stop offset="0.48" stop-color="#FF980E"/>
            <stop offset="0.59" stop-color="#FF5634"/>
            <stop offset="0.66" stop-color="#FF3647"/>
            <stop offset="0.9" stop-color="#E31587"/>
        </radialGradient>
        <radialGradient id="paint10_radial_13161_655" cx="0" cy="0" r="1" gradientUnits="userSpaceOnUse" gradientTransform="translate(16.3609 6.22532) scale(21.8883 21.9363)">
            <stop offset="0.09" stop-color="#FFF44F"/>
            <stop offset="0.23" stop-color="#FFE141"/>
            <stop offset="0.51" stop-color="#FFAF1E"/>
            <stop offset="0.63" stop-color="#FF980E"/>
        </radialGradient>
        <linearGradient id="paint11_linear_13161_655" x1="20.1413" y1="4.02914" x2="5.25782" y2="18.8804" gradientUnits="userSpaceOnUse">
            <stop offset="0.17" stop-color="#FFF44F" stop-opacity="0.8"/>
            <stop offset="0.27" stop-color="#FFF44F" stop-opacity="0.63"/>
            <stop offset="0.49" stop-color="#FFF44F" stop-opacity="0.22"/>
            <stop offset="0.6" stop-color="#FFF44F" stop-opacity="0"/>
        </linearGradient>
    </defs>
<path d="M21.7429 8.04486C21.2862 6.94305 20.3605 5.75354 19.6338 5.37779C20.2253 6.54011 20.5674 7.70594 20.6982 8.57582C20.6982 8.57582 20.6982 8.58196 20.7004 8.59336C19.5117 5.62332 17.4958 4.42549 15.8495 1.81805C15.766 1.68652 15.6829 1.55498 15.6015 1.41424C15.5555 1.33488 15.5184 1.26298 15.486 1.19502C15.4178 1.06318 15.3651 0.923844 15.3289 0.779812C15.3292 0.772973 15.327 0.76627 15.3226 0.761005C15.3182 0.755739 15.3121 0.752285 15.3053 0.751313C15.2989 0.749562 15.2921 0.749562 15.2856 0.751313C15.2839 0.752107 15.2823 0.75314 15.2808 0.754382C15.2782 0.754382 15.2756 0.757452 15.2729 0.758328L15.2773 0.752629C12.6362 2.30297 11.7402 5.17085 11.658 6.60588C10.6026 6.67821 9.59346 7.06769 8.76227 7.72348C8.67539 7.64986 8.58455 7.58106 8.49015 7.51741C8.25061 6.67703 8.24049 5.78762 8.46084 4.94198C7.38069 5.43523 6.54071 6.21347 5.92998 6.90227H5.92517C5.50825 6.37307 5.53756 4.62761 5.56118 4.26327C5.55637 4.24047 5.25057 4.42242 5.21119 4.45004C4.8433 4.71307 4.4994 5.00828 4.18354 5.3322C3.8241 5.69741 3.49572 6.09207 3.20182 6.51205C2.52564 7.47242 2.0461 8.55759 1.79093 9.70482C1.78612 9.72762 1.78174 9.75129 1.77693 9.77453C1.75724 9.86704 1.68593 10.3314 1.67324 10.4322V10.4554C1.58028 10.9352 1.52238 11.4211 1.5 11.9093V11.9633C1.5 17.7823 6.20735 22.5 12.0137 22.5C17.2141 22.5 21.5316 18.7162 22.3773 13.746C22.3948 13.6114 22.4092 13.4755 22.4249 13.3395C22.6341 11.5323 22.4018 9.63291 21.7429 8.04486ZM9.62455 16.2929C9.67355 16.3161 9.71992 16.342 9.77023 16.3648L9.77723 16.3692C9.72692 16.3446 9.67574 16.3192 9.62499 16.2929H9.62455ZM20.7013 8.59818V8.5881V8.5995V8.59818Z" fill="url(#paint0_linear_13161_655)"/>
<path d="M21.7431 8.045C21.2863 6.94318 20.3606 5.75368 19.6339 5.37793C20.2254 6.54025 20.5675 7.70608 20.6983 8.57595V8.59744C21.6906 11.293 21.1498 14.0342 20.3711 15.709C19.1663 18.3002 16.2496 20.9563 11.6835 20.827C6.75436 20.6867 2.40881 17.0165 1.59727 12.2133C1.4494 11.4552 1.59727 11.0707 1.67165 10.4556C1.58109 10.9295 1.54653 11.0668 1.50146 11.9095V11.9634C1.50146 17.7824 6.20881 22.5001 12.0151 22.5001C17.2155 22.5001 21.5331 18.7163 22.3787 13.7461C22.3962 13.6115 22.4107 13.4756 22.4264 13.3397C22.6342 11.5324 22.4019 9.63305 21.7431 8.045Z" fill="url(#paint1_radial_13161_655)"/>
<path d="M21.7431 8.045C21.2863 6.94318 20.3606 5.75368 19.6339 5.37793C20.2254 6.54025 20.5675 7.70608 20.6983 8.57595V8.59744C21.6906 11.293 21.1498 14.0342 20.3711 15.709C19.1663 18.3002 16.2496 20.9563 11.6835 20.827C6.75436 20.6867 2.40881 17.0165 1.59727 12.2133C1.4494 11.4552 1.59727 11.0707 1.67165 10.4556C1.58109 10.9295 1.54653 11.0668 1.50146 11.9095V11.9634C1.50146 17.7824 6.20881 22.5001 12.0151 22.5001C17.2155 22.5001 21.5331 18.7163 22.3787 13.7461C22.3962 13.6115 22.4107 13.4756 22.4264 13.3397C22.6342 11.5324 22.4019 9.63305 21.7431 8.045Z" fill="url(#paint2_radial_13161_655)"/>
<path d="M16.6337 9.28333C16.6569 9.29956 16.6774 9.31578 16.6993 9.332C16.4354 8.86245 16.1067 8.43262 15.7228 8.05525C12.4548 4.78006 14.8662 0.953299 15.2727 0.758629L15.277 0.75293C12.6359 2.30327 11.74 5.17115 11.6577 6.60618C11.7802 6.59785 11.9023 6.58733 12.027 6.58733C13.9978 6.58733 15.7145 7.6738 16.6337 9.28333Z" fill="url(#paint3_radial_13161_655)"/>
<path d="M12.0332 9.93742C12.0162 10.2005 11.0922 11.1037 10.7689 11.1037C7.77912 11.1037 7.29395 12.9162 7.29395 12.9162C7.42519 14.4429 8.48653 15.6999 9.77055 16.365C9.82918 16.3953 9.88824 16.4225 9.94555 16.4497C10.0484 16.4935 10.1516 16.5373 10.2544 16.5764C10.6948 16.732 11.1559 16.8207 11.6224 16.8394C16.8626 17.0858 17.8785 10.56 14.0964 8.66505C15.0646 8.49625 16.0699 8.8869 16.6312 9.28194C15.7125 7.67241 13.9954 6.58594 12.0245 6.58594C11.8998 6.58594 11.7777 6.59646 11.6552 6.60479C10.6006 6.67802 9.59246 7.06793 8.76215 7.7237C8.92271 7.86006 9.10382 8.04158 9.48487 8.41776C10.1997 9.12454 12.0293 9.85192 12.0332 9.93742Z" fill="url(#paint4_radial_13161_655)"/>
<path d="M12.0332 9.93742C12.0162 10.2005 11.0922 11.1037 10.7689 11.1037C7.77912 11.1037 7.29395 12.9162 7.29395 12.9162C7.42519 14.4429 8.48653 15.6999 9.77055 16.365C9.82918 16.3953 9.88824 16.4225 9.94555 16.4497C10.0484 16.4935 10.1516 16.5373 10.2544 16.5764C10.6948 16.732 11.1559 16.8207 11.6224 16.8394C16.8626 17.0858 17.8785 10.56 14.0964 8.66505C15.0646 8.49625 16.0699 8.8869 16.6312 9.28194C15.7125 7.67241 13.9954 6.58594 12.0245 6.58594C11.8998 6.58594 11.7777 6.59646 11.6552 6.60479C10.6006 6.67802 9.59246 7.06793 8.76215 7.7237C8.92271 7.86006 9.10382 8.04158 9.48487 8.41776C10.1997 9.12454 12.0293 9.85192 12.0332 9.93742Z" fill="url(#paint5_radial_13161_655)"/>
<path d="M8.27355 7.37357C8.35886 7.42881 8.42886 7.47529 8.4923 7.51781C8.25276 6.67743 8.24264 5.78802 8.46298 4.94238C7.38283 5.43563 6.54286 6.21388 5.93213 6.90268C5.98156 6.90136 7.50664 6.87374 8.27355 7.37357Z" fill="url(#paint6_radial_13161_655)"/>
<path d="M1.59752 12.2129C2.40906 17.0161 6.7546 20.6863 11.6873 20.8266C16.2533 20.956 19.1683 18.2999 20.3749 15.7086C21.1536 14.0333 21.6943 11.2926 20.7021 8.59705V8.57688C20.7021 8.57951 20.7021 8.58302 20.7043 8.59442C21.077 11.0352 19.8385 13.3998 17.9022 14.9988C17.9002 15.0033 17.8983 15.0078 17.8965 15.0124C14.1232 18.0916 10.5126 16.8701 9.78157 16.3716C9.73082 16.347 9.67963 16.3216 9.62889 16.2953C7.42877 15.243 6.52011 13.2327 6.71479 11.5101C4.85766 11.5101 4.22419 9.93957 4.22419 9.93957C4.22419 9.93957 5.89188 8.74788 8.08981 9.78436C10.1254 10.7446 12.0372 9.94001 12.0372 9.93957C12.0333 9.85407 10.2037 9.1245 9.4902 8.41992C9.10915 8.04373 8.92803 7.86221 8.76748 7.72586C8.6806 7.65223 8.58976 7.58344 8.49536 7.51979C8.4328 7.47594 8.36411 7.4321 8.27662 7.37554C7.5097 6.87571 5.98463 6.90333 5.93432 6.90465H5.9295C5.51258 6.37544 5.54189 4.62999 5.56552 4.26564C5.5607 4.24284 5.2549 4.4248 5.21553 4.45242C4.84763 4.71545 4.50373 5.01066 4.18787 5.33457C3.82844 5.69979 3.50006 6.09445 3.20616 6.51443C2.52998 7.4748 2.05044 8.55997 1.79526 9.7072C1.78695 9.72736 1.4129 11.3641 1.59752 12.2129Z" fill="url(#paint7_radial_13161_655)"/>
<path d="M15.7225 8.05495C16.1064 8.43232 16.4351 8.86215 16.699 9.3317C16.7537 9.37286 16.8063 9.41676 16.8565 9.46323C19.2399 11.6625 17.9931 14.7759 17.8982 14.9995C19.8345 13.4005 21.073 11.0359 20.7003 8.59511C19.5116 5.62332 17.4957 4.42549 15.8494 1.81805C15.7659 1.68652 15.6827 1.55498 15.6014 1.41424C15.5554 1.33488 15.5182 1.26298 15.4859 1.19502C15.4176 1.06318 15.3649 0.923844 15.3288 0.779812C15.3291 0.772973 15.3268 0.76627 15.3225 0.761005C15.3181 0.755739 15.3119 0.752285 15.3052 0.751313C15.2987 0.749562 15.2919 0.749562 15.2855 0.751313C15.2838 0.752107 15.2821 0.75314 15.2807 0.754382C15.2781 0.754382 15.2754 0.757452 15.2728 0.758328C14.8659 0.952999 12.4545 4.77976 15.7225 8.05495Z" fill="url(#paint8_radial_13161_655)"/>
<path d="M16.8557 9.46145C16.8055 9.41497 16.7529 9.37107 16.6982 9.32991C16.6768 9.31369 16.6545 9.29747 16.6326 9.28124C16.0713 8.88664 15.066 8.49555 14.0978 8.66435C17.8794 10.5593 16.864 17.0851 11.6238 16.8387C11.1573 16.82 10.6962 16.7313 10.2558 16.5757C10.153 16.5371 10.0498 16.4946 9.94697 16.449C9.88747 16.4218 9.82841 16.3946 9.77197 16.3643L9.77897 16.3687C10.51 16.8686 14.1206 18.0901 17.8939 15.0095C17.8939 15.0095 17.8961 15.0038 17.8996 14.9959C17.9932 14.7763 19.24 11.6629 16.8557 9.46145Z" fill="url(#paint9_radial_13161_655)"/>
<path d="M7.29399 12.916C7.29399 12.916 7.77916 11.1035 10.7689 11.1035C11.0922 11.1035 12.0162 10.1994 12.0333 9.93721C12.0503 9.67502 10.1215 10.7422 8.08584 9.782C5.88791 8.74551 4.22021 9.93721 4.22021 9.93721C4.22021 9.93721 4.85369 11.5077 6.71082 11.5077C6.51614 13.2304 7.4248 15.2389 9.62492 16.2929C9.67391 16.3162 9.72029 16.342 9.7706 16.3648C8.48658 15.701 7.42655 14.4427 7.29399 12.916Z" fill="url(#paint10_radial_13161_655)"/>
<path d="M21.7429 8.04486C21.2862 6.94305 20.3605 5.75354 19.6338 5.37779C20.2253 6.54011 20.5674 7.70594 20.6982 8.57582C20.6982 8.57582 20.6982 8.58196 20.7004 8.59336C19.5117 5.62332 17.4958 4.42549 15.8495 1.81805C15.766 1.68652 15.6829 1.55498 15.6015 1.41424C15.5555 1.33488 15.5184 1.26298 15.486 1.19502C15.4178 1.06318 15.3651 0.923844 15.3289 0.779812C15.3292 0.772973 15.327 0.76627 15.3226 0.761005C15.3182 0.755739 15.3121 0.752285 15.3053 0.751313C15.2989 0.749562 15.2921 0.749562 15.2856 0.751313C15.2839 0.752107 15.2823 0.75314 15.2808 0.754382C15.2782 0.754382 15.2756 0.757452 15.2729 0.758328L15.2773 0.752629C12.6362 2.30297 11.7402 5.17085 11.658 6.60588C11.7805 6.59755 11.9025 6.58703 12.0272 6.58703C13.9981 6.58703 15.7148 7.6735 16.6339 9.28303C16.0727 8.88843 15.0673 8.49734 14.0992 8.66614C17.8808 10.5611 16.8654 17.0869 11.6252 16.8405C11.1586 16.8218 10.6975 16.7331 10.2572 16.5775C10.1543 16.5389 10.0511 16.4963 9.94829 16.4507C9.88879 16.4236 9.82973 16.3964 9.7733 16.3661L9.7803 16.3705C9.72955 16.346 9.67836 16.3205 9.62761 16.2942C9.67661 16.3175 9.72298 16.3433 9.7733 16.3661C8.48665 15.701 7.42662 14.4427 7.29406 12.916C7.29406 12.916 7.77923 11.1035 10.769 11.1035C11.0923 11.1035 12.0163 10.1994 12.0333 9.93719C12.0294 9.8517 10.1998 9.12212 9.4863 8.41754C9.10525 8.04135 8.92414 7.85984 8.76358 7.72348C8.6767 7.64986 8.58586 7.58106 8.49146 7.51741C8.25193 6.67703 8.2418 5.78762 8.46215 4.94198C7.382 5.43523 6.54202 6.21347 5.93129 6.90227H5.92648C5.50956 6.37307 5.53887 4.62761 5.56249 4.26327C5.55768 4.24047 5.25188 4.42242 5.21251 4.45004C4.84461 4.71307 4.50071 5.00828 4.18485 5.3322C3.82541 5.69741 3.49703 6.09207 3.20313 6.51205C2.52695 7.47242 2.04742 8.55759 1.79224 9.70482C1.78743 9.72762 1.78305 9.75129 1.77824 9.77453C1.75855 9.86704 1.66931 10.3379 1.65706 10.4388C1.65706 10.4467 1.65706 10.4313 1.65706 10.4388C1.57514 10.9253 1.52269 11.4164 1.5 11.9093V11.9633C1.5 17.7823 6.20735 22.5 12.0137 22.5C17.2141 22.5 21.5316 18.7162 22.3773 13.746C22.3948 13.6114 22.4092 13.4755 22.4249 13.3395C22.6341 11.5323 22.4018 9.63291 21.7429 8.04486ZM20.6999 8.5859V8.5973V8.5859Z" fill="url(#paint11_linear_13161_655)"/>

</svg>
