<svg width="18" height="18" viewBox="0 0 18 18" fill="none" xmlns="http://www.w3.org/2000/svg">
<path d="M16 -0.000976562H2C0.9 -0.000976562 0 0.899023 0 1.99902V15.999C0 17.099 0.9 17.999 2 17.999H16C17.1 17.999 18 17.099 18 15.999V1.99902C18 0.899023 17.1 -0.000976562 16 -0.000976562ZM7.71 13.289C7.32 13.679 6.69 13.679 6.3 13.289L2.71 9.69902C2.32 9.30902 2.32 8.67902 2.71 8.28902C3.1 7.89902 3.73 7.89902 4.12 8.28902L7 11.169L13.88 4.28902C14.27 3.89902 14.9 3.89902 15.29 4.28902C15.68 4.67902 15.68 5.30902 15.29 5.69902L7.71 13.289Z" fill="#2563EB"/>
</svg>
